<svg xmlns="http://www.w3.org/2000/svg" viewBox="0 0 512 512">
  <!-- Rounded square background -->
  <rect width="512" height="512" rx="112" fill="#FAFAFA"/>

  <!-- Watermelon slice — centered -->
  <g transform="translate(256, 320)">
    <!-- Green rind -->
    <path d="M-195 0 Q0 -360 195 0 Z" fill="#2E7D32"/>
    <!-- Light rind accent -->
    <path d="M-195 0 Q0 -360 195 0" fill="none" stroke="#43A047" stroke-width="3"/>
    <!-- White rind -->
    <path d="M-175 -4 Q0 -328 175 -4 Z" fill="#E8F5E9"/>
    <!-- Red flesh -->
    <path d="M-162 -6 Q0 -306 162 -6 Z" fill="#E53935"/>
    <!-- Lighter flesh highlight -->
    <path d="M-110 -20 Q0 -260 110 -20 Z" fill="#EF5350" opacity="0.4"/>

    <!-- Seeds -->
    <g fill="#3E2723">
      <ellipse cx="-72" cy="-80" rx="7.5" ry="14" transform="rotate(-22 -72 -80)"/>
      <ellipse cx="0" cy="-110" rx="7.5" ry="14"/>
      <ellipse cx="72" cy="-80" rx="7.5" ry="14" transform="rotate(22 72 -80)"/>
      <ellipse cx="-38" cy="-38" rx="6.5" ry="12" transform="rotate(-10 -38 -38)"/>
      <ellipse cx="38" cy="-38" rx="6.5" ry="12" transform="rotate(10 38 -38)"/>
    </g>
    <!-- Seed shine -->
    <g fill="#795548" opacity="0.45">
      <ellipse cx="-74" cy="-86" rx="2.5" ry="4" transform="rotate(-22 -74 -86)"/>
      <ellipse cx="-2" cy="-116" rx="2.5" ry="4"/>
      <ellipse cx="70" cy="-86" rx="2.5" ry="4" transform="rotate(22 70 -86)"/>
    </g>
  </g>
</svg>
